<?xml version="1.0" standalone="no"?>
<!DOCTYPE svg PUBLIC "-//W3C//DTD SVG 20010904//EN"
 "http://www.w3.org/TR/2001/REC-SVG-20010904/DTD/svg10.dtd">
<svg version="1.0" xmlns="http://www.w3.org/2000/svg"
 width="6912.000000pt" height="3456.000000pt" viewBox="0 0 6912.000000 3456.000000"
 preserveAspectRatio="xMidYMid meet">

<g transform="translate(0.000000,3456.000000) scale(0.100000,-0.100000)"
fill="#000000" stroke="none">
<path d="M3530 26765 l0 -485 70 0 70 0 0 210 0 210 143 0 c173 0 224 13 291
71 70 62 91 108 91 204 0 92 -14 126 -78 193 -71 73 -111 82 -367 82 l-220 0
0 -485z m461 340 c68 -36 91 -139 46 -206 -39 -59 -73 -69 -229 -69 l-138 0 0
145 0 145 145 0 c112 0 153 -4 176 -15z"/>
<path d="M4330 26765 l0 -485 75 0 75 0 2 368 3 369 268 -369 269 -368 74 0
74 0 0 485 0 485 -75 0 -75 0 -2 -370 -3 -369 -266 367 -265 367 -77 3 -77 3
0 -486z"/>
<path d="M5320 26765 l0 -485 70 0 70 0 2 223 3 222 233 3 232 2 0 65 0 65
-235 0 -235 0 0 130 0 130 258 2 257 3 3 63 3 62 -331 0 -330 0 0 -485z"/>
<path d="M6070 26765 l0 -485 70 0 70 0 0 210 0 210 84 0 84 0 153 -210 153
-210 89 0 c70 0 87 3 80 13 -6 6 -74 98 -153 202 -79 105 -147 195 -152 202
-7 8 3 18 30 32 105 53 156 134 156 246 0 86 -31 154 -96 209 -67 58 -111 66
-355 66 l-213 0 0 -485z m471 328 c59 -50 73 -116 38 -184 -32 -64 -75 -79
-236 -79 l-133 0 0 145 0 145 149 0 c148 0 150 0 182 -27z"/>
<path d="M0 9120 l0 -9120 6988 0 6988 0 43 88 c84 167 213 447 298 646 928
2180 1219 4593 838 6953 -227 1405 -693 2761 -1380 4018 -223 407 -588 984
-857 1353 -1195 1637 -2758 2963 -4548 3858 -1033 516 -2082 874 -3215 1098
-406 80 -901 150 -1300 186 -427 37 -570 40 -2227 40 l-1628 0 0 -9120z"/>
<path d="M44293 12130 c-54 -11 -80 -25 -121 -64 -53 -50 -66 -82 -72 -186
l-5 -95 -77 -3 -78 -3 0 -79 0 -80 75 0 75 0 0 -325 0 -325 105 0 105 0 0 325
0 325 95 0 95 0 0 80 0 80 -95 0 -95 0 0 68 c0 55 4 73 20 90 22 23 73 29 100
12 11 -7 21 7 47 72 18 45 33 83 33 83 0 1 -17 7 -37 13 -59 17 -124 21 -170
12z"/>
<path d="M21860 11546 l0 -576 100 0 100 0 0 245 0 245 73 0 73 0 139 -245
140 -244 118 -1 c92 0 117 3 111 13 -4 6 -74 119 -156 249 -81 131 -148 242
-148 246 0 5 17 16 37 26 95 45 164 140 178 247 15 105 -44 231 -138 295 -87
60 -126 67 -389 72 l-238 4 0 -576z m475 368 c56 -27 85 -74 85 -140 0 -46 -4
-57 -33 -87 -42 -45 -88 -57 -214 -57 l-103 0 0 156 0 157 113 -5 c84 -3 122
-9 152 -24z"/>
<path d="M22860 12030 l0 -90 100 0 100 0 0 90 0 90 -100 0 -100 0 0 -90z"/>
<path d="M25983 12051 l-92 -66 -1 -102 0 -103 -65 0 -65 0 0 -80 0 -80 64 0
65 0 3 -253 3 -254 30 -48 c22 -36 45 -57 85 -78 52 -27 61 -29 155 -25 55 2
106 7 113 11 8 6 12 36 12 94 0 84 0 85 -22 78 -13 -4 -46 -9 -74 -12 -44 -4
-54 -2 -80 20 l-29 25 0 219 0 218 103 3 102 3 0 79 0 79 -102 3 -103 3 -5
166 -5 167 -92 -67z"/>
<path d="M26603 12054 l-93 -68 0 -103 0 -103 -70 0 -70 0 0 -80 0 -79 68 -3
67 -3 5 -255 c6 -282 7 -289 74 -348 20 -17 52 -36 73 -41 49 -14 167 -14 216
0 l37 10 0 86 c0 84 0 85 -22 79 -13 -4 -48 -9 -78 -13 -46 -4 -59 -2 -80 15
l-25 20 -3 226 -3 226 105 0 106 0 0 80 0 80 -105 0 -105 0 -2 171 -3 171 -92
-68z"/>
<path d="M28342 11593 c3 -510 4 -529 23 -563 33 -55 72 -72 164 -71 133 1
131 -1 131 92 l0 79 -38 0 c-21 0 -48 7 -60 16 l-22 15 0 480 0 479 -101 0
-100 0 3 -527z"/>
<path d="M30072 11593 c3 -510 4 -529 23 -563 33 -55 72 -72 164 -71 133 1
131 -1 131 92 l0 79 -38 0 c-21 0 -48 7 -60 16 l-22 15 0 480 0 479 -101 0
-100 0 3 -527z"/>
<path d="M36710 12055 l-85 -63 -5 -104 -5 -103 -67 -3 -68 -3 0 -79 0 -80 64
0 64 0 4 -247 c3 -270 7 -289 66 -349 51 -50 79 -59 192 -59 58 0 113 3 123 7
14 6 17 21 17 94 0 85 0 86 -22 79 -13 -4 -46 -9 -75 -12 -46 -5 -54 -3 -77
20 l-26 26 0 221 0 220 100 0 100 0 0 80 0 80 -100 0 -100 0 0 170 c0 94 -3
170 -7 169 -5 0 -46 -29 -93 -64z"/>
<path d="M37323 12054 l-93 -68 0 -103 0 -103 -70 0 -70 0 0 -80 0 -79 68 -3
67 -3 5 -255 c6 -282 7 -289 74 -348 20 -17 52 -36 73 -41 49 -14 167 -14 216
0 l37 10 0 86 c0 84 0 85 -22 79 -13 -4 -48 -9 -78 -13 -46 -4 -59 -2 -80 15
l-25 20 -3 226 -3 226 105 0 106 0 0 80 0 80 -105 0 -105 0 -2 171 -3 171 -92
-68z"/>
<path d="M37800 12030 l0 -90 105 0 105 0 0 90 0 90 -105 0 -105 0 0 -90z"/>
<path d="M40050 12030 l0 -90 100 0 100 0 0 90 0 90 -100 0 -100 0 0 -90z"/>
<path d="M31979 11812 c-78 -67 -71 -64 -123 -41 -120 53 -280 28 -377 -59
-74 -66 -94 -110 -94 -207 0 -68 4 -88 29 -137 l28 -56 -24 -34 c-66 -87 -60
-209 11 -273 l22 -19 -47 -43 -47 -43 7 -52 c21 -157 142 -246 346 -256 172
-7 292 37 354 131 45 70 47 190 4 252 -46 69 -114 95 -316 124 -76 11 -147 23
-158 27 -31 11 -54 36 -54 59 0 37 18 45 62 29 59 -21 177 -18 244 6 152 53
229 196 190 351 l-17 64 28 25 c15 14 41 35 57 47 l28 22 -48 60 c-27 33 -52
60 -55 60 -3 1 -26 -16 -50 -37z m-204 -176 c49 -21 75 -68 75 -136 0 -94 -45
-139 -137 -140 -41 0 -58 5 -82 26 -78 65 -58 210 33 250 40 17 69 17 111 0z
m-46 -721 c156 -20 181 -31 181 -86 0 -105 -262 -123 -349 -24 -37 42 -38 56
-10 102 14 22 27 32 38 29 9 -3 72 -12 140 -21z"/>
<path d="M32817 11798 l-57 -50 -53 23 c-78 35 -211 34 -287 -2 -102 -48 -161
-118 -179 -215 -12 -62 3 -149 34 -199 l22 -38 -31 -44 c-25 -36 -31 -55 -34
-112 -4 -72 9 -112 50 -153 l20 -20 -41 -42 c-36 -36 -41 -48 -41 -86 0 -99
77 -197 189 -242 49 -20 74 -23 191 -23 126 1 139 2 195 28 33 16 70 38 83 50
59 56 87 146 71 230 -22 121 -108 167 -371 201 -155 20 -187 37 -178 96 3 24
19 28 58 14 59 -21 182 -17 248 7 72 27 140 89 170 154 28 59 32 157 9 220
l-15 40 37 30 c20 17 46 37 57 46 20 17 20 18 -25 75 -25 32 -50 59 -55 61 -5
1 -35 -21 -67 -49z m-200 -159 c97 -37 124 -170 48 -246 -29 -29 -39 -33 -85
-33 -31 0 -64 7 -81 17 -84 50 -77 212 11 255 40 21 67 22 107 7z m-27 -725
c159 -21 195 -42 175 -100 -17 -49 -67 -69 -170 -69 -77 0 -96 4 -135 25 -27
15 -52 39 -62 59 -17 33 -17 36 4 73 19 33 26 38 48 33 14 -3 77 -12 140 -21z"/>
<path d="M23465 11791 c-139 -37 -209 -118 -209 -241 0 -72 15 -109 61 -151
39 -37 73 -53 191 -87 151 -44 184 -86 123 -154 -25 -28 -35 -32 -92 -36 -55
-3 -69 0 -99 20 -31 21 -73 72 -82 99 -2 6 -37 -5 -80 -25 l-77 -35 10 -30
c17 -50 92 -124 156 -156 49 -24 73 -29 153 -33 80 -3 104 0 154 18 70 27 132
80 157 135 23 50 25 152 3 203 -33 80 -79 110 -252 167 -142 46 -170 78 -117
130 20 21 34 25 80 25 66 0 104 -18 140 -64 l26 -34 74 41 74 40 -17 29 c-25
43 -78 87 -140 115 -57 27 -181 39 -237 24z"/>
<path d="M24385 11791 c-40 -10 -95 -39 -122 -64 l-23 -20 0 36 0 37 -100 0
-100 0 0 -585 0 -586 98 3 97 3 3 212 2 211 57 -34 c31 -18 72 -37 90 -40 56
-11 185 1 221 20 45 24 110 83 138 128 93 147 90 395 -7 542 -74 111 -223 168
-354 137z m126 -194 c34 -18 51 -36 73 -80 25 -49 29 -68 29 -139 0 -141 -59
-226 -163 -236 -73 -7 -117 5 -160 44 -63 58 -88 175 -59 288 13 52 61 113
103 132 50 21 127 17 177 -9z"/>
<path d="M25200 11785 c-177 -50 -280 -201 -280 -411 0 -256 155 -415 404
-415 133 0 230 36 301 111 l30 32 -64 58 -64 57 -43 -33 c-57 -42 -135 -60
-205 -45 -66 15 -102 41 -128 94 -39 81 -56 76 257 79 l277 3 3 61 c8 173 -76
329 -209 389 -78 34 -196 43 -279 20z m200 -170 c42 -21 81 -78 87 -125 l6
-40 -183 0 -183 0 6 36 c8 50 48 107 88 127 43 21 140 22 179 2z"/>
<path d="M27272 11785 c-29 -8 -67 -22 -84 -31 -39 -20 -138 -113 -138 -128 0
-6 11 -18 23 -27 12 -8 43 -30 70 -49 l47 -34 33 36 c48 52 92 72 162 73 91 0
148 -49 157 -135 l3 -35 -175 -5 c-198 -7 -253 -22 -310 -86 -94 -107 -51
-297 83 -370 42 -22 68 -29 135 -32 111 -6 161 9 227 69 l53 49 6 -31 c3 -17
6 -42 6 -55 0 -23 2 -24 81 -24 l80 0 -3 303 -3 302 -27 50 c-57 107 -155 165
-291 171 -53 3 -101 -1 -135 -11z m266 -512 c-15 -57 -52 -98 -113 -128 -77
-38 -146 -32 -188 15 -23 26 -28 38 -23 63 7 35 31 65 61 78 11 4 77 8 147 8
l126 1 -10 -37z"/>
<path d="M29002 11785 c-29 -8 -67 -22 -84 -31 -39 -20 -138 -113 -138 -128 0
-6 11 -18 23 -27 12 -8 43 -30 70 -49 l47 -34 33 36 c48 52 92 72 162 73 91 0
148 -49 157 -135 l3 -35 -175 -5 c-198 -7 -253 -22 -310 -86 -94 -107 -51
-297 83 -370 42 -22 68 -29 135 -32 111 -6 161 9 227 69 l53 49 6 -31 c3 -17
6 -42 6 -55 0 -23 2 -24 81 -24 l80 0 -3 303 -3 302 -27 50 c-57 107 -155 165
-291 171 -53 3 -101 -1 -135 -11z m266 -512 c-15 -57 -52 -98 -113 -128 -77
-38 -146 -32 -188 15 -23 26 -28 38 -23 63 7 35 31 65 61 78 11 4 77 8 147 8
l126 1 -10 -37z"/>
<path d="M30764 11786 c-201 -49 -327 -274 -281 -501 20 -94 45 -149 98 -209
134 -152 432 -160 590 -16 l44 39 -65 59 -65 60 -36 -29 c-52 -41 -85 -51
-164 -52 -81 -1 -121 16 -158 65 -20 27 -47 88 -47 104 0 2 126 4 279 4 l279
0 7 31 c9 40 -3 140 -26 214 -57 184 -248 281 -455 231z m215 -185 c35 -25 70
-90 71 -128 l0 -23 -179 0 c-99 0 -182 3 -184 8 -3 4 1 25 8 46 32 93 85 129
185 124 49 -3 74 -9 99 -27z"/>
<path d="M33330 11785 c-128 -36 -231 -146 -265 -285 -23 -94 -17 -221 16
-304 32 -82 110 -165 191 -202 58 -27 72 -29 183 -29 92 0 131 4 168 18 52 21
170 103 165 116 -2 5 -32 34 -68 64 l-64 57 -26 -24 c-46 -43 -91 -59 -165
-60 -91 0 -142 26 -179 94 -46 85 -62 79 252 82 l277 3 3 65 c9 176 -88 346
-225 395 -68 24 -195 29 -263 10z m199 -170 c16 -8 40 -28 54 -45 27 -31 50
-96 41 -112 -3 -4 -86 -8 -185 -8 -199 0 -193 -2 -164 67 33 78 85 113 168
113 32 0 71 -7 86 -15z"/>
<path d="M34600 11785 c-128 -36 -231 -146 -265 -285 -23 -94 -17 -221 16
-304 32 -82 110 -165 191 -202 58 -27 72 -29 183 -29 92 0 131 4 168 18 52 21
170 103 165 116 -2 5 -32 34 -68 64 l-64 57 -26 -24 c-46 -43 -91 -59 -165
-60 -91 0 -142 26 -179 94 -46 85 -62 79 252 82 l277 3 3 65 c9 176 -88 346
-225 395 -68 24 -195 29 -263 10z m199 -170 c16 -8 40 -28 54 -45 27 -31 50
-96 41 -112 -3 -4 -86 -8 -185 -8 -199 0 -193 -2 -164 67 33 78 85 113 168
113 32 0 71 -7 86 -15z"/>
<path d="M35895 11786 c-78 -19 -142 -55 -196 -113 -194 -205 -134 -556 116
-679 56 -27 68 -29 180 -29 115 0 123 1 185 32 73 36 103 60 154 127 84 110
101 305 39 438 -56 119 -141 190 -268 223 -69 18 -140 18 -210 1z m190 -175
c55 -24 91 -71 111 -139 32 -110 -3 -260 -74 -311 -74 -52 -185 -48 -255 10
-91 75 -105 286 -24 384 58 71 159 94 242 56z"/>
<path d="M38450 11785 c-177 -50 -280 -201 -280 -411 0 -256 155 -415 404
-415 133 0 230 36 301 111 l30 32 -64 58 -64 57 -43 -33 c-57 -42 -135 -60
-205 -45 -66 15 -102 41 -128 94 -39 81 -56 76 257 79 l277 3 3 61 c8 173 -76
329 -209 389 -78 34 -196 43 -279 20z m200 -170 c42 -21 81 -78 87 -125 l6
-40 -183 0 -183 0 6 36 c8 50 48 107 88 127 43 21 140 22 179 2z"/>
<path d="M39452 11785 c-49 -15 -85 -36 -124 -73 l-28 -26 0 47 0 47 -95 0
-95 0 0 -405 0 -405 94 0 95 0 3 263 c3 243 4 265 24 297 53 92 178 117 255
53 56 -47 59 -66 59 -353 l0 -260 100 0 100 0 0 243 c0 274 -9 359 -46 434
-60 123 -204 181 -342 138z"/>
<path d="M42182 11785 c-49 -15 -85 -36 -124 -73 l-28 -26 0 47 0 47 -95 0
-95 0 0 -405 0 -405 94 0 95 0 3 263 c3 243 4 265 24 297 53 92 178 117 255
53 56 -47 59 -66 59 -353 l0 -260 100 0 100 0 0 243 c0 274 -9 359 -46 434
-60 123 -204 181 -342 138z"/>
<path d="M42974 11787 c-28 -8 -73 -26 -99 -42 -51 -30 -138 -112 -131 -124 3
-4 37 -29 76 -56 l71 -49 26 32 c51 67 153 96 228 68 54 -21 86 -63 93 -121
l4 -43 -173 -4 c-157 -3 -179 -6 -227 -27 -97 -44 -138 -116 -129 -227 6 -82
42 -145 105 -185 61 -39 102 -49 192 -49 90 0 146 22 206 81 l41 41 7 -56 7
-56 80 0 80 0 -3 298 -3 297 -28 57 c-53 108 -150 166 -289 173 -50 3 -103 -1
-134 -8z m266 -500 c0 -42 -57 -114 -112 -141 -144 -72 -286 28 -184 130 l34
34 131 0 c130 0 131 0 131 -23z"/>
<path d="M44950 11789 c-47 -15 -86 -44 -121 -92 l-29 -40 0 61 0 62 -95 0
-95 0 0 -405 0 -405 94 0 95 0 3 233 c3 231 3 232 31 289 32 65 62 93 120 110
32 10 47 9 82 -3 l42 -15 42 75 c23 41 40 80 37 87 -15 38 -138 63 -206 43z"/>
<path d="M45480 11785 c-177 -50 -280 -201 -280 -411 0 -256 155 -415 404
-415 133 0 230 36 301 111 l30 32 -64 58 -64 57 -43 -33 c-57 -42 -135 -60
-205 -45 -66 15 -102 41 -128 94 -39 81 -56 76 257 79 l277 3 3 61 c8 173 -76
329 -209 389 -78 34 -196 43 -279 20z m200 -170 c42 -21 81 -78 87 -125 l6
-40 -183 0 -183 0 6 36 c8 50 48 107 88 127 43 21 140 22 179 2z"/>
<path d="M46312 11781 c-140 -48 -226 -182 -239 -371 -12 -185 61 -345 189
-415 44 -24 68 -30 141 -33 101 -5 157 11 213 60 l34 30 0 -221 0 -221 100 0
100 0 0 585 0 585 -100 0 -100 0 0 -35 0 -35 -50 34 c-82 56 -191 70 -288 37z
m244 -180 c72 -33 108 -107 109 -221 0 -158 -67 -240 -195 -240 -66 0 -109 19
-147 65 -69 84 -70 263 -1 350 47 61 155 82 234 46z"/>
<path d="M48250 11785 c-177 -50 -280 -201 -280 -411 0 -256 155 -415 404
-415 133 0 230 36 301 111 l30 32 -64 58 -64 57 -43 -33 c-57 -42 -135 -60
-205 -45 -66 15 -102 41 -128 94 -39 81 -56 76 257 79 l277 3 3 61 c8 173 -76
329 -209 389 -78 34 -196 43 -279 20z m200 -170 c42 -21 81 -78 87 -125 l6
-40 -183 0 -183 0 6 36 c8 50 48 107 88 127 43 21 140 22 179 2z"/>
<path d="M49252 11785 c-49 -15 -85 -36 -124 -73 l-28 -26 0 47 0 47 -95 0
-95 0 0 -405 0 -405 94 0 95 0 3 263 c3 243 4 265 24 297 53 92 178 117 255
53 56 -47 59 -66 59 -353 l0 -260 100 0 100 0 0 243 c0 274 -9 359 -46 434
-60 123 -204 181 -342 138z"/>
<path d="M50867 11790 c-78 -20 -177 -84 -217 -140 l-20 -28 70 -51 c38 -28
71 -51 73 -51 2 0 24 19 48 43 70 67 149 83 225 46 46 -22 84 -82 84 -132 l0
-27 -152 0 c-170 0 -237 -13 -299 -55 -110 -77 -106 -280 7 -373 51 -42 119
-62 214 -62 89 0 159 29 209 86 17 19 33 34 36 34 3 0 5 -15 5 -32 0 -75 4
-78 91 -78 l79 0 0 265 c0 148 -5 286 -11 313 -23 107 -108 203 -207 232 -52
16 -190 21 -235 10z m259 -512 c-14 -69 -96 -142 -173 -154 -87 -13 -153 25
-153 89 0 78 39 96 204 97 l129 0 -7 -32z"/>
<path d="M22860 11375 l0 -405 100 0 100 0 0 405 0 405 -100 0 -100 0 0 -405z"/>
<path d="M37810 11375 l0 -405 95 0 95 0 0 405 0 405 -95 0 -95 0 0 -405z"/>
<path d="M40050 11375 l0 -405 100 0 100 0 0 405 0 405 -100 0 -100 0 0 -405z"/>
<path d="M40860 11553 c0 -344 18 -430 104 -519 58 -59 96 -74 197 -74 82 0
145 21 198 66 l41 36 0 -46 0 -46 100 0 100 0 0 405 0 405 -99 0 -99 0 -4
-242 -3 -243 -30 -60 c-37 -75 -76 -100 -156 -100 -67 0 -104 21 -127 73 -14
31 -17 82 -20 305 l-3 267 -100 0 -99 0 0 -227z"/>
<path d="M47060 11583 c1 -358 23 -469 109 -554 59 -57 112 -73 218 -67 84 5
121 20 178 69 l35 31 0 -46 0 -46 100 0 100 0 0 405 0 405 -100 0 -100 0 0
-220 c0 -232 -8 -300 -43 -352 -46 -68 -150 -94 -223 -55 -60 31 -68 69 -72
365 l-4 262 -99 0 -99 0 0 -197z"/>
<path d="M49800 11700 l0 -80 215 0 c118 0 215 -2 215 -5 0 -3 -101 -119 -225
-258 l-225 -252 0 -67 0 -68 355 0 355 0 0 85 0 85 -216 2 -216 3 216 247 216
248 0 70 0 70 -345 0 -345 0 0 -80z"/>
<path d="M51580 11075 l0 -105 100 0 100 0 0 105 0 105 -100 0 -100 0 0 -105z"/>
<path d="M25523 9930 c-54 -11 -80 -25 -121 -64 -53 -50 -66 -82 -72 -186 l-5
-95 -77 -3 -78 -3 0 -79 0 -80 75 0 75 0 0 -325 0 -325 105 0 105 0 0 325 0
325 95 0 95 0 0 80 0 80 -95 0 -95 0 0 68 c0 55 4 73 20 90 22 23 73 29 100
12 11 -7 21 7 47 72 18 45 33 83 33 83 0 1 -17 7 -37 13 -59 17 -124 21 -170
12z"/>
<path d="M30181 9930 c-132 -28 -201 -124 -201 -282 l0 -68 -75 0 -75 0 0 -80
0 -80 75 0 75 0 0 -325 0 -325 100 0 100 0 2 323 3 322 93 3 92 3 0 79 0 79
-92 3 -93 3 -3 37 c-4 53 15 116 40 129 12 6 39 9 63 6 l42 -6 27 67 c14 37
26 73 26 79 0 26 -128 47 -199 33z"/>
<path d="M36123 9838 c4 -57 10 -241 13 -410 l7 -308 73 0 c41 0 74 3 75 8 4
32 23 805 20 808 -2 2 -47 4 -99 4 l-95 0 6 -102z"/>
<path d="M21860 9345 l0 -575 100 0 100 0 0 402 0 401 240 -401 241 -402 99 0
100 0 0 575 0 575 -95 0 -95 0 -2 -402 -3 -402 -240 402 -240 401 -102 1 -103
0 0 -575z"/>
<path d="M28630 9830 l0 -90 100 0 100 0 0 90 0 90 -100 0 -100 0 0 -90z"/>
<path d="M29060 9414 c0 -333 4 -520 11 -549 6 -24 24 -55 40 -71 26 -25 39
-29 105 -32 41 -3 95 -1 119 3 l45 6 0 80 0 79 -38 0 c-21 0 -48 7 -60 16
l-22 15 0 480 0 479 -100 0 -100 0 0 -506z"/>
<path d="M32110 9345 l0 -575 100 0 100 0 0 40 0 41 38 -30 c52 -43 115 -62
200 -62 206 0 342 168 342 424 0 177 -85 331 -213 388 -101 45 -268 27 -327
-36 -13 -14 -27 -25 -32 -25 -4 0 -8 92 -8 205 l0 205 -100 0 -100 0 0 -575z
m464 61 c43 -18 91 -77 106 -132 20 -72 9 -192 -24 -248 -38 -65 -88 -89 -176
-84 -82 4 -126 33 -160 105 -29 61 -32 186 -6 248 21 49 61 93 101 111 39 17
117 18 159 0z"/>
<path d="M34063 9854 l-93 -68 0 -103 0 -103 -70 0 -70 0 0 -80 0 -79 68 -3
67 -3 5 -255 c6 -282 7 -289 74 -348 20 -17 52 -36 73 -41 49 -14 167 -14 216
0 l37 10 0 86 c0 84 0 85 -22 79 -13 -4 -48 -9 -78 -13 -46 -4 -59 -2 -80 15
l-25 20 -3 226 -3 226 105 0 106 0 0 80 0 80 -105 0 -105 0 -2 171 -3 171 -92
-68z"/>
<path d="M34673 9851 l-92 -66 -1 -102 0 -103 -65 0 -65 0 0 -80 0 -80 64 0
65 0 3 -253 3 -254 30 -48 c22 -36 45 -57 85 -78 52 -27 61 -29 155 -25 55 2
106 7 113 11 8 6 12 36 12 94 0 84 0 85 -22 78 -13 -4 -46 -9 -74 -12 -44 -4
-54 -2 -80 20 l-29 25 0 219 0 218 103 3 102 3 0 79 0 79 -102 3 -103 3 -5
166 -5 167 -92 -67z"/>
<path d="M23242 9584 c-66 -17 -106 -38 -158 -80 -137 -111 -185 -340 -106
-508 41 -88 109 -158 191 -199 63 -31 70 -32 186 -32 113 0 124 2 180 29 209
103 294 370 186 585 -87 170 -288 257 -479 205z m214 -180 c24 -13 50 -39 68
-68 25 -40 30 -60 34 -132 6 -104 -9 -160 -55 -214 -57 -66 -163 -85 -244 -44
-37 19 -85 76 -100 121 -18 49 -17 178 0 223 38 96 107 143 202 137 30 -1 73
-12 95 -23z"/>
<path d="M24305 9594 c-46 -12 -83 -29 -127 -61 l-48 -33 0 40 0 40 -100 0
-100 0 0 -405 0 -405 100 0 100 0 0 257 c0 239 1 260 21 299 29 61 78 89 154
89 71 0 112 -24 141 -82 17 -34 19 -68 22 -300 l3 -263 95 0 94 0 0 279 c0
243 -2 287 -18 339 -42 131 -124 200 -249 207 -38 2 -77 2 -88 -1z"/>
<path d="M26030 9586 c-25 -7 -63 -21 -85 -31 -48 -24 -150 -119 -141 -133 3
-6 36 -31 72 -57 l65 -47 48 45 c81 76 186 87 255 26 34 -29 65 -107 51 -128
-4 -7 -58 -11 -150 -11 -167 0 -226 -10 -289 -50 -118 -75 -124 -269 -10 -369
57 -50 119 -71 209 -71 94 0 155 22 209 75 49 47 56 44 56 -26 l0 -39 86 0 86
0 -4 288 c-4 268 -5 291 -26 342 -37 93 -113 158 -217 185 -70 18 -153 18
-215 1z m270 -488 c-1 -30 -40 -97 -74 -125 -120 -98 -283 -51 -252 74 13 48
58 63 199 63 95 0 127 -3 127 -12z"/>
<path d="M27039 9586 c-52 -18 -94 -51 -121 -94 l-23 -37 -3 63 -3 62 -94 0
-95 0 0 -405 0 -405 95 0 95 0 0 195 c0 261 17 336 94 402 43 39 100 50 149
29 41 -17 32 -25 102 98 30 54 31 53 -40 86 -46 23 -104 25 -156 6z"/>
<path d="M27594 9590 c-109 -23 -207 -101 -255 -203 -108 -232 -28 -498 179
-595 52 -25 68 -27 183 -27 124 0 126 0 200 37 40 20 87 51 104 68 l29 30 -53
48 c-75 66 -79 67 -110 45 -58 -44 -95 -56 -166 -57 -75 0 -113 14 -152 56
-21 23 -53 87 -53 108 0 7 94 10 280 10 l280 0 0 84 c0 188 -80 324 -224 378
-58 23 -180 32 -242 18z m185 -180 c28 -14 46 -34 65 -72 46 -92 53 -88 -159
-88 -102 0 -185 4 -185 9 0 20 32 97 48 114 52 60 155 76 231 37z"/>
<path d="M31775 9584 c-44 -16 -88 -54 -116 -99 l-19 -30 0 63 0 62 -100 0
-100 0 0 -405 0 -405 94 0 94 0 5 218 c5 250 16 299 75 361 50 52 105 69 165
49 l43 -14 43 79 44 80 -24 17 c-52 40 -134 49 -204 24z"/>
<path d="M33294 9590 c-109 -23 -207 -101 -255 -203 -108 -232 -28 -498 179
-595 52 -25 68 -27 183 -27 124 0 126 0 200 37 40 20 87 51 104 68 l29 30 -53
48 c-75 66 -79 67 -110 45 -58 -44 -95 -56 -166 -57 -75 0 -113 14 -152 56
-21 23 -53 87 -53 108 0 7 94 10 280 10 l280 0 0 84 c0 188 -80 324 -224 378
-58 23 -180 32 -242 18z m185 -180 c28 -14 46 -34 65 -72 46 -92 53 -88 -159
-88 -102 0 -185 4 -185 9 0 20 32 97 48 114 52 60 155 76 231 37z"/>
<path d="M35395 9586 c-78 -19 -142 -55 -196 -113 -194 -205 -134 -556 116
-679 56 -27 68 -29 180 -29 115 0 123 1 185 32 73 36 103 60 154 127 84 110
101 305 39 438 -56 119 -141 190 -268 223 -69 18 -140 18 -210 1z m190 -175
c55 -24 91 -71 111 -139 32 -110 -3 -260 -74 -311 -74 -52 -185 -48 -255 10
-91 75 -105 286 -24 384 58 71 159 94 242 56z"/>
<path d="M28630 9175 l0 -405 100 0 100 0 0 405 0 405 -100 0 -100 0 0 -405z"/>
<path d="M30472 9298 c4 -231 8 -293 21 -335 45 -135 133 -204 264 -204 91 0
139 14 202 62 l51 39 0 -45 0 -45 100 0 100 0 0 405 0 405 -99 0 -99 0 -4
-237 c-6 -263 -14 -308 -70 -363 -57 -58 -167 -63 -219 -10 -43 43 -49 85 -49
358 l0 252 -101 0 -101 0 4 -282z"/>
<path d="M36110 8875 l0 -105 110 0 110 0 0 105 0 105 -110 0 -110 0 0 -105z"/>
</g>
</svg>
